<svg xmlns="http://www.w3.org/2000/svg" viewBox="0 0 120 120" width="120" height="120">
  <rect width="120" height="120" fill="#f5f5f5" rx="4"/>
  <rect x="10" y="10" width="100" height="100" fill="#fff" stroke="#d9d9d9" stroke-width="2" rx="2"/>
  <text x="60" y="35" text-anchor="middle" font-size="10" fill="#333" font-family="sans-serif">§Áđ</text>
  <text x="60" y="50" text-anchor="middle" font-size="8" fill="#666" font-family="sans-serif">Ä< / ĺ</text>
  <rect x="20" y="70" width="80" height="20" fill="#eee" rx="1"/>
  <rect x="22" y="72" width="2" height="16" fill="#333"/><rect x="26" y="72" width="1" height="16" fill="#333"/>
  <rect x="30" y="72" width="3" height="16" fill="#333"/><rect x="36" y="72" width="1" height="16" fill="#333"/>
  <rect x="40" y="72" width="2" height="16" fill="#333"/><rect x="46" y="72" width="4" height="16" fill="#333"/>
  <rect x="54" y="72" width="1" height="16" fill="#333"/><rect x="58" y="72" width="2" height="16" fill="#333"/>
  <rect x="64" y="72" width="3" height="16" fill="#333"/><rect x="70" y="72" width="1" height="16" fill="#333"/>
  <rect x="74" y="72" width="2" height="16" fill="#333"/><rect x="80" y="72" width="4" height="16" fill="#333"/>
  <rect x="88" y="72" width="1" height="16" fill="#333"/><rect x="92" y="72" width="2" height="16" fill="#333"/>
</svg>
